<?xml version="1.0" encoding="UTF-8"?>
<svg width="32px" height="32px" viewBox="0 0 32 32" version="1.1" xmlns="http://www.w3.org/2000/svg" xmlns:xlink="http://www.w3.org/1999/xlink">
    <title>Sun</title>
    <g id="Sun" stroke="none" stroke-width="1" fill="none" fill-rule="evenodd">
        <path d="M16.3535534,0.353553391 L20,4 L27.5,4 C27.7761424,4 28,4.22385763 28,4.5 L28,12 L31.6464466,15.6464466 C31.8417088,15.8417088 31.8417088,16.1582912 31.6464466,16.3535534 L27.999,20 L28,27.5 C28,27.7761424 27.7761424,28 27.5,28 L19.999,28 L16.3535534,31.6464466 C16.1582912,31.8417088 15.8417088,31.8417088 15.6464466,31.6464466 L12,28 L4.5,28 C4.22385763,28 4,27.7761424 4,27.5 L3.999,19.999 L0.353553391,16.3535534 C0.158291245,16.1582912 0.158291245,15.8417088 0.353553391,15.6464466 L3.999,12 L4,4.5 C4,4.22385763 4.22385763,4 4.5,4 L11.999,4 L15.6464466,0.353553391 C15.8417088,0.158291245 16.1582912,0.158291245 16.3535534,0.353553391 Z" id="Combined-Shape-Copy-8" fill="#FFA726"></path>
        <circle id="Oval-55-Copy" fill="#FFDCA8" cx="16" cy="16" r="10"></circle>
    </g>
</svg>